<svg xmlns="http://www.w3.org/2000/svg" width="337.8524169921875" height="336.78515625" viewBox="-163.13427734375 -158.40684509277344 337.8524169921875 336.78515625"><title>Neo4j Graph Visualization</title><desc>Created using Neo4j (http://www.neo4j.com/)</desc><g class="layer relationships"><g class="relationship" transform="translate(65.56411515195883 148.68932779273234) rotate(246.1249199950014)"><path class="outline" fill="#A5ABB6" stroke="none" d="M 25 0.5 L 47.716473987440736 0.5 L 47.716473987440736 -0.5 L 25 -0.5 Z M 93.27897398744074 0.5 L 115.99544797488147 0.5 L 115.99544797488147 3.5 L 122.99544797488147 0 L 115.99544797488147 -3.5 L 115.99544797488147 -0.5 L 93.27897398744074 -0.5 Z"/><text text-anchor="middle" pointer-events="none" font-size="8px" fill="#000000" x="70.49772398744074" y="3" transform="rotate(180 70.49772398744074 0)" font-family="sans-serif">ACTED_IN</text></g><g class="relationship" transform="translate(145.7181162430983 61.39338710736191) rotate(198.93084760961779)"><path class="outline" fill="#A5ABB6" stroke="none" d="M 25 0.5 L 52.644708341200044 0.5 L 52.644708341200044 -0.5 L 25 -0.5 Z M 88.41814584120004 0.5 L 116.06285418240009 0.5 L 116.06285418240009 3.5 L 123.06285418240009 0 L 116.06285418240009 -3.5 L 116.06285418240009 -0.5 L 88.41814584120004 -0.5 Z"/><text text-anchor="middle" pointer-events="none" font-size="8px" fill="#000000" x="70.53142709120004" y="3" transform="rotate(180 70.53142709120004 0)" font-family="sans-serif">WROTE</text></g><g class="relationship" transform="translate(137.04546463243204 -55.402435103854415) rotate(512.3741030806523)"><path class="outline" fill="#A5ABB6" stroke="none" d="M 25 0.5 L 52.75689430902317 0.5 L 52.75689430902317 -0.5 L 25 -0.5 Z M 88.53033180902317 0.5 L 116.28722611804633 0.5 L 116.28722611804633 3.5 L 123.28722611804633 0 L 116.28722611804633 -3.5 L 116.28722611804633 -0.5 L 88.53033180902317 -0.5 Z"/><text text-anchor="middle" pointer-events="none" font-size="8px" fill="#000000" x="70.64361305902317" y="3" transform="rotate(180 70.64361305902317 0)" font-family="sans-serif">WROTE</text></g><g class="relationship" transform="translate(47.22647336180163 -129.40684148875624) rotate(466.23168969027836)"><path class="outline" fill="#A5ABB6" stroke="none" d="M 25 0.5 L 52.95910283235331 0.5 L 52.95910283235331 -0.5 L 25 -0.5 Z M 88.73254033235331 0.5 L 116.69164316470662 0.5 L 116.69164316470662 3.5 L 123.69164316470662 0 L 116.69164316470662 -3.5 L 116.69164316470662 -0.5 L 88.73254033235331 -0.5 Z"/><text text-anchor="middle" pointer-events="none" font-size="8px" fill="#000000" x="70.84582158235331" y="3" transform="rotate(180 70.84582158235331 0)" font-family="sans-serif">WROTE</text></g><g class="relationship" transform="translate(-57.61904037615867 -120.86921066024185) rotate(424.7579223257493)"><path class="outline" fill="#A5ABB6" stroke="none" d="M 25 0.5 L 47.25311427274437 0.5 L 47.25311427274437 -0.5 L 25 -0.5 Z M 94.14373927274437 0.5 L 116.39685354548874 0.5 L 116.39685354548874 3.5 L 123.39685354548874 0 L 116.39685354548874 -3.5 L 116.39685354548874 -0.5 L 94.14373927274437 -0.5 Z"/><text text-anchor="middle" pointer-events="none" font-size="8px" fill="#000000" x="70.69842677274437" y="3" font-family="sans-serif">DIRECTED</text></g><g class="relationship" transform="translate(-131.69013845646987 -42.6577373399533) rotate(382.1865704804696)"><path class="outline" fill="#A5ABB6" stroke="none" d="M 25 0.5 L 47.8872498263257 0.5 L 47.8872498263257 -0.5 L 25 -0.5 Z M 93.4497498263257 0.5 L 116.3369996526514 0.5 L 116.3369996526514 3.5 L 123.3369996526514 0 L 116.3369996526514 -3.5 L 116.3369996526514 -0.5 L 93.4497498263257 -0.5 Z"/><text text-anchor="middle" pointer-events="none" font-size="8px" fill="#000000" x="70.6684998263257" y="3" font-family="sans-serif">ACTED_IN</text></g><g class="relationship" transform="translate(-134.1342838472337 63.568358119041804) rotate(340.2435171749722)"><path class="outline" fill="#A5ABB6" stroke="none" d="M 25 0.5 L 47.9895671612142 0.5 L 47.9895671612142 -0.5 L 25 -0.5 Z M 93.5520671612142 0.5 L 116.5416343224284 0.5 L 116.5416343224284 3.5 L 123.5416343224284 0 L 116.5416343224284 -3.5 L 116.5416343224284 -0.5 L 93.5520671612142 -0.5 Z"/><text text-anchor="middle" pointer-events="none" font-size="8px" fill="#000000" x="70.7708171612142" y="3" font-family="sans-serif">ACTED_IN</text></g><g class="relationship" transform="translate(-52.957482961176495 149.37829653259925) rotate(293.31480772271095)"><path class="outline" fill="#A5ABB6" stroke="none" d="M 25 0.5 L 47.77620534460871 0.5 L 47.77620534460871 -0.5 L 25 -0.5 Z M 93.33870534460871 0.5 L 116.11491068921742 0.5 L 116.11491068921742 3.5 L 123.11491068921742 0 L 116.11491068921742 -3.5 L 116.11491068921742 -0.5 L 93.33870534460871 -0.5 Z"/><text text-anchor="middle" pointer-events="none" font-size="8px" fill="#000000" x="70.55745534460871" y="3" font-family="sans-serif">ACTED_IN</text></g></g><g class="layer nodes"><g class="node" aria-label="graph-node171" transform="translate(5.663859387229321,13.357838550184518)"><circle class="outline" cx="0" cy="0" r="25" fill="#F79767" stroke="#f36924" stroke-width="2px"/><text class="caption" text-anchor="middle" pointer-events="none" x="0" y="-5" font-size="10px" fill="#FFFFFF" font-family="sans-serif"> Captain</text><text class="caption" text-anchor="middle" pointer-events="none" x="0" y="5" font-size="10px" fill="#FFFFFF" font-family="sans-serif"> America:</text><text class="caption" text-anchor="middle" pointer-events="none" x="0" y="15" font-size="10px" fill="#FFFFFF" font-family="sans-serif"> Th</text></g><g class="node" aria-label="graph-node177" transform="translate(65.56411515195883,148.68932779273234)"><circle class="outline" cx="0" cy="0" r="25" fill="#C990C0" stroke="#b261a5" stroke-width="2px"/><text class="caption" text-anchor="middle" pointer-events="none" x="0" y="0" font-size="10px" fill="#FFFFFF" font-family="sans-serif"> Samuel L.</text><text class="caption" text-anchor="middle" pointer-events="none" x="0" y="10" font-size="10px" fill="#FFFFFF" font-family="sans-serif"> Jackson</text></g><g class="node" aria-label="graph-node174" transform="translate(145.7181162430983,61.39338710736191)"><circle class="outline" cx="0" cy="0" r="25" fill="#C990C0" stroke="#b261a5" stroke-width="2px"/><text class="caption" text-anchor="middle" pointer-events="none" x="0" y="0" font-size="10px" fill="#FFFFFF" font-family="sans-serif"> Stephen</text><text class="caption" text-anchor="middle" pointer-events="none" x="0" y="10" font-size="10px" fill="#FFFFFF" font-family="sans-serif"> McFe…</text></g><g class="node" aria-label="graph-node175" transform="translate(137.04546463243204,-55.402435103854415)"><circle class="outline" cx="0" cy="0" r="25" fill="#C990C0" stroke="#b261a5" stroke-width="2px"/><text class="caption" text-anchor="middle" pointer-events="none" x="0" y="0" font-size="10px" fill="#FFFFFF" font-family="sans-serif"> Joe</text><text class="caption" text-anchor="middle" pointer-events="none" x="0" y="10" font-size="10px" fill="#FFFFFF" font-family="sans-serif"> Simon</text></g><g class="node" aria-label="graph-node173" transform="translate(47.22647336180163,-129.40684148875624)"><circle class="outline" cx="0" cy="0" r="25" fill="#C990C0" stroke="#b261a5" stroke-width="2px"/><text class="caption" text-anchor="middle" pointer-events="none" x="0" y="5" font-size="10px" fill="#FFFFFF" font-family="sans-serif"> Christop…</text></g><g class="node" aria-label="graph-node172" transform="translate(-57.61904037615867,-120.86921066024185)"><circle class="outline" cx="0" cy="0" r="25" fill="#C990C0" stroke="#b261a5" stroke-width="2px"/><text class="caption" text-anchor="middle" pointer-events="none" x="0" y="0" font-size="10px" fill="#FFFFFF" font-family="sans-serif"> Joe</text><text class="caption" text-anchor="middle" pointer-events="none" x="0" y="10" font-size="10px" fill="#FFFFFF" font-family="sans-serif"> Johnst…</text></g><g class="node" aria-label="graph-node176" transform="translate(-131.69013845646987,-42.6577373399533)"><circle class="outline" cx="0" cy="0" r="25" fill="#C990C0" stroke="#b261a5" stroke-width="2px"/><text class="caption" text-anchor="middle" pointer-events="none" x="0" y="0" font-size="10px" fill="#FFFFFF" font-family="sans-serif"> Chris</text><text class="caption" text-anchor="middle" pointer-events="none" x="0" y="10" font-size="10px" fill="#FFFFFF" font-family="sans-serif"> Evans</text></g><g class="node" aria-label="graph-node178" transform="translate(-134.1342838472337,63.568358119041804)"><circle class="outline" cx="0" cy="0" r="25" fill="#C990C0" stroke="#b261a5" stroke-width="2px"/><text class="caption" text-anchor="middle" pointer-events="none" x="0" y="0" font-size="10px" fill="#FFFFFF" font-family="sans-serif"> Sebastian</text><text class="caption" text-anchor="middle" pointer-events="none" x="0" y="10" font-size="10px" fill="#FFFFFF" font-family="sans-serif"> Stan</text></g><g class="node" aria-label="graph-node179" transform="translate(-52.957482961176495,149.37829653259925)"><circle class="outline" cx="0" cy="0" r="25" fill="#C990C0" stroke="#b261a5" stroke-width="2px"/><text class="caption" text-anchor="middle" pointer-events="none" x="0" y="0" font-size="10px" fill="#FFFFFF" font-family="sans-serif"> Dominic</text><text class="caption" text-anchor="middle" pointer-events="none" x="0" y="10" font-size="10px" fill="#FFFFFF" font-family="sans-serif"> Cooper</text></g></g></svg>